<svg xmlns="http://www.w3.org/2000/svg" width="16.918" height="12.767" viewBox="0 0 16.918 12.767">
  <g id="layer1" transform="translate(-27.873 -115.59)">
    <path id="rect6094-5-9" d="M36.33,115.592a7.063,7.063,0,0,0-6.372,4.01c-.059-.006-.116-.018-.177-.018a1.9,1.9,0,0,0-1.907,1.907v2.357a1.9,1.9,0,0,0,1.907,1.907c.061,0,.118-.013.177-.018.076.158.155.314.243.468a.527.527,0,1,0,.915-.523,6.025,6.025,0,1,1,10.434,0l-.016.026-.011.026s-.711,1.573-2.107,1.573l-1.767-.016a.9.9,0,0,0-.748-.411H35.762a.921.921,0,0,0-.922.923c0,.315.2.554.657.554h3.918a3.562,3.562,0,0,0,3.042-2.152V126.2c.088-.152.165-.309.241-.465.062.006.122.018.185.018a1.9,1.9,0,0,0,1.907-1.907v-2.357a1.9,1.9,0,0,0-1.907-1.907,1.271,1.271,0,0,0-.178.018,7.053,7.053,0,0,0-6.376-4.01Zm-2.3,3.351a1.308,1.308,0,0,0-1.113.405,5.115,5.115,0,0,0-1.414,3.506c0,1.1.368,2.332.987,2.377.882.064,2.274-.515,3.841-.515,1.661,0,3.126.65,3.995.5.527-.093.835-1.352.835-2.358a5.116,5.116,0,0,0-1.415-3.506c-.874-.92-2.081,0-3.415,0C35.5,119.348,34.715,118.988,34.031,118.943Zm-.2,2.267a.882.882,0,1,1-.882.882A.882.882,0,0,1,33.835,121.21Zm4.994,0a.882.882,0,1,1-.882.882A.883.883,0,0,1,38.829,121.21Z" transform="translate(0 0)" fill="#1A50A3" fill-rule="evenodd"/>
  </g>
</svg>
