<svg xmlns="http://www.w3.org/2000/svg" width="12.844" height="12.845" viewBox="0 0 12.844 12.845">
  <g id="Group_6105" data-name="Group 6105" transform="translate(-7078 -7170)">
    <path id="Subtraction_64" data-name="Subtraction 64" d="M4.5,9A4.5,4.5,0,0,1,1.318,1.318,4.5,4.5,0,1,1,7.682,7.682,4.471,4.471,0,0,1,4.5,9ZM2.25,3.91V5.018H3.882V6.75h1.24V5.018H6.75V3.91H5.122V2.25H3.882V3.91Z" transform="translate(7080 7172)" fill="#939393"/>
    <g id="Group_6104" data-name="Group 6104" transform="translate(0.344)">
      <path id="Path_2242" data-name="Path 2242" d="M318.41,4.384a2.71,2.71,0,0,1,.567.563l2.079-2.078a.383.383,0,0,0,.032-.036,1.438,1.438,0,1,0-.553-.567.392.392,0,0,0-.044.037Zm0,0" transform="translate(6767.234 7169.859)" fill="#939393"/>
      <path id="Path_2243" data-name="Path 2243" d="M1.44,3.043a1.434,1.434,0,0,0,.7-.181.4.4,0,0,0,.036.042L4.261,4.989a2.692,2.692,0,0,1,.561-.569L2.741,2.339A.392.392,0,0,0,2.7,2.3a1.44,1.44,0,1,0-1.259.74Zm0,0" transform="translate(7077.656 7169.84)" fill="#939393"/>
      <path id="Path_2244" data-name="Path 2244" d="M321.475,320.242a1.433,1.433,0,0,0-.7.181.4.4,0,0,0-.036-.042l-2.1-2.1a2.694,2.694,0,0,1-.569.561l2.1,2.1a.37.37,0,0,0,.042.036,1.44,1.44,0,1,0,1.259-.74Zm0,0" transform="translate(6767.562 6859.7)" fill="#939393"/>
      <path id="Path_2245" data-name="Path 2245" d="M219.37,1.767a.4.4,0,0,0-.015.108V3.762a2.7,2.7,0,0,1,.8-.005V1.875a.406.406,0,0,0-.01-.088.932.932,0,1,0-.774-.019Zm0,0" transform="translate(6864.3 7170.001)" fill="#939393"/>
      <path id="Path_2246" data-name="Path 2246" d="M220.175,361.6a.4.4,0,0,0,.015-.107v-1.915a2.7,2.7,0,0,1-.8.005v1.91a.4.4,0,0,0,.012.1.93.93,0,1,0,.772.01Zm0,0" transform="translate(6864.3 6819.446)" fill="#939393"/>
      <path id="Path_2247" data-name="Path 2247" d="M4.86,319.141a2.7,2.7,0,0,1-.571-.559l-2.113,2.112a.4.4,0,0,0-.036.042,1.44,1.44,0,1,0,.559.559.393.393,0,0,0,.042-.036Zm0,0" transform="translate(7077.656 6859.41)" fill="#939393"/>
      <path id="Path_2248" data-name="Path 2248" d="M1.855,218.766a.4.4,0,0,0-.073.007.931.931,0,1,0-.012.783.4.4,0,0,0,.085.009H3.788a2.7,2.7,0,0,1-.008-.8Zm0,0" transform="translate(7077.656 6957.254)" fill="#939393"/>
      <path id="Path_2249" data-name="Path 2249" d="M362.448,219.565a.4.4,0,0,0,.086-.01.931.931,0,1,0-.012-.783.4.4,0,0,0-.074-.007h-1.936a2.7,2.7,0,0,1-.008.8Zm0,0" transform="translate(6726.196 6957.254)" fill="#939393"/>
    </g>
  </g>
</svg>
