<svg xmlns="http://www.w3.org/2000/svg" width="12.728" height="12.39" viewBox="0 0 12.728 12.39">
  <g id="Group_5198" data-name="Group 5198" transform="translate(3813.728 -3830)">
    <g id="Rectangle_3518" data-name="Rectangle 3518" transform="translate(-3811 3830)" fill="#f3f6f8" stroke="#818180" stroke-width="1">
      <rect width="10" height="10" rx="1" stroke="none"/>
      <rect x="0.5" y="0.5" width="9" height="9" rx="0.5" fill="none"/>
    </g>
    <g id="menu-3" transform="translate(-3809.007 3832.188)">
      <path id="Path_2142" data-name="Path 2142" d="M5.9,123.6H.257c-.142,0-.257-.208-.257-.465s.115-.465.257-.465H5.9c.142,0,.257.208.257.465S6.043,123.6,5.9,123.6Zm0,0" transform="translate(0 -120.381)" fill="#818180"/>
      <path id="Path_2143" data-name="Path 2143" d="M5.9.931H.257C.115.931,0,.722,0,.465S.115,0,.257,0H5.9c.142,0,.257.208.257.465S6.043.931,5.9.931Zm0,0" fill="#818180"/>
      <path id="Path_2144" data-name="Path 2144" d="M5.9,246.262H.257c-.142,0-.257-.208-.257-.465s.115-.465.257-.465H5.9c.142,0,.257.208.257.465S6.043,246.262,5.9,246.262Zm0,0" transform="translate(0 -240.758)" fill="#818180"/>
    </g>
    <path id="Path_2141" data-name="Path 2141" d="M3.275,4.55H2v8.927a1.279,1.279,0,0,0,1.275,1.275H12.2V13.477H3.275Z" transform="translate(-3815.728 3827.638)" fill="#818180"/>
  </g>
</svg>
