<svg xmlns="http://www.w3.org/2000/svg" width="12.752" height="14.091" viewBox="0 0 12.752 14.091">
  <g id="line_46_" transform="translate(-23.275)">
    <path id="Path_2127" data-name="Path 2127" d="M23.275,9.848a1.146,1.146,0,0,0,1.827.927l3.41,2.058c0,.036-.011.071-.011.108a1.151,1.151,0,0,0,2.3,0c0-.037-.007-.072-.011-.108l3.41-2.058a1.149,1.149,0,1,0,1.116-1.989V4.867a1.15,1.15,0,1,0-1.255-1.875L30.791,1.256A1.07,1.07,0,0,0,30.8,1.15a1.15,1.15,0,0,0-2.3,0c0,.037.007.071.011.107L25.24,2.993a1.15,1.15,0,1,0-1.255,1.875V8.786A1.149,1.149,0,0,0,23.275,9.848ZM34.292,4.791a1.1,1.1,0,0,0,.144.076V8.785a1.146,1.146,0,0,0-.29.181L30.791,7.185a1.07,1.07,0,0,0,.011-.107,1.14,1.14,0,0,0-.017-.17Zm-4.2-2.579a1.135,1.135,0,0,0,.287-.178l3.348,1.777a1.133,1.133,0,0,0,.037.269L30.33,6.154a1.157,1.157,0,0,0-.239-.138Zm0,5.928a1.127,1.127,0,0,0,.287-.178l3.358,1.783c0,.034-.01.067-.01.1a1.136,1.136,0,0,0,.018.174l-3.367,2.033a1.142,1.142,0,0,0-.285-.176V8.141Zm-.881,3.737a1.141,1.141,0,0,0-.285.176l-3.367-2.033a1.137,1.137,0,0,0,.018-.174c0-.035-.007-.068-.01-.1l3.358-1.783a1.135,1.135,0,0,0,.287.178v3.738h0ZM25.575,3.812l3.348-1.777a1.146,1.146,0,0,0,.287.177v3.8a1.138,1.138,0,0,0-.239.138L25.539,4.082A1.132,1.132,0,0,0,25.575,3.812Zm-.709,1.055a1.15,1.15,0,0,0,.144-.076l3.508,2.118a1.14,1.14,0,0,0-.017.17c0,.037.007.071.011.107L25.157,8.966a1.153,1.153,0,0,0-.29-.181V4.868Z" transform="translate(0)" fill="#818180"/>
  </g>
</svg>
