<svg xmlns="http://www.w3.org/2000/svg" width="14.523" height="14.523" viewBox="0 0 14.523 14.523">
  <g id="connection" transform="translate(0 0.001)">
    <path id="Path_2118" data-name="Path 2118" d="M185.094,181.172a2.106,2.106,0,1,0,0,2.977A2.106,2.106,0,0,0,185.094,181.172Zm0,0" transform="translate(-176.351 -175.435)" fill="#939393"/>
    <path id="Path_2119" data-name="Path 2119" d="M1.628,3.419a1.621,1.621,0,0,0,.791-.2.447.447,0,0,0,.041.048L4.817,5.619a3.044,3.044,0,0,1,.635-.644L3.1,2.623a.443.443,0,0,0-.048-.041,1.628,1.628,0,1,0-1.423.837Zm0,0" transform="translate(0 -0.16)" fill="#939393"/>
    <path id="Path_2120" data-name="Path 2120" d="M321.92,320.5a1.621,1.621,0,0,0-.791.2.459.459,0,0,0-.041-.048l-2.37-2.37a3.046,3.046,0,0,1-.644.635l2.375,2.374a.431.431,0,0,0,.047.041,1.628,1.628,0,1,0,1.423-.837Zm0,0" transform="translate(-309.052 -309.258)" fill="#939393"/>
    <path id="Path_2121" data-name="Path 2121" d="M219.438,2a.45.45,0,0,0-.017.122V4.253a3.05,3.05,0,0,1,.9-.006V2.12a.459.459,0,0,0-.011-.1A1.054,1.054,0,1,0,219.438,2Zm0,0" transform="translate(-212.639 0)" fill="#939393"/>
    <path id="Path_2122" data-name="Path 2122" d="M220.349,361.86a.453.453,0,0,0,.017-.121v-2.165a3.046,3.046,0,0,1-.9.006v2.159a.451.451,0,0,0,.014.11,1.052,1.052,0,1,0,.873.011Zm0,0" transform="translate(-212.639 -349.376)" fill="#939393"/>
    <path id="Path_2123" data-name="Path 2123" d="M318.41,4.938a3.063,3.063,0,0,1,.641.637l2.35-2.35a.43.43,0,0,0,.036-.041,1.626,1.626,0,1,0-.625-.641.443.443,0,0,0-.05.042Zm0,0" transform="translate(-309.379 -0.141)" fill="#939393"/>
    <path id="Path_2124" data-name="Path 2124" d="M5.495,319.214a3.046,3.046,0,0,1-.646-.632L2.46,320.97a.448.448,0,0,0-.041.048,1.628,1.628,0,1,0,.632.632.444.444,0,0,0,.048-.041Zm0,0" transform="translate(0 -309.547)" fill="#939393"/>
    <path id="Path_2125" data-name="Path 2125" d="M362.7,219.741a.448.448,0,0,0,.1-.011,1.052,1.052,0,1,0-.013-.885.455.455,0,0,0-.084-.008h-2.189a3.047,3.047,0,0,1-.009.9Zm0,0" transform="translate(-350.278 -212.032)" fill="#939393"/>
    <path id="Path_2126" data-name="Path 2126" d="M2.1,218.837a.449.449,0,0,0-.083.008,1.053,1.053,0,1,0-.013.886.454.454,0,0,0,.1.01H4.283a3.049,3.049,0,0,1-.009-.9Zm0,0" transform="translate(0 -212.032)" fill="#939393"/>
  </g>
</svg>
