<svg xmlns="http://www.w3.org/2000/svg" width="15.521" height="12.469" viewBox="0 0 15.521 12.469">
  <g id="chat" transform="translate(0 -0.07)">
    <path id="Path_2142" data-name="Path 2142" d="M248.2,47.564a.584.584,0,0,0-.174-.415.609.609,0,0,0-.427-.172.6.6,0,0,0-.6.588v.455h1.2Zm0,0" transform="translate(-237.123 -45.031)" fill="#2598cb"/>
    <path id="Path_2143" data-name="Path 2143" d="M61.159,47.564a.579.579,0,0,0-.168-.415.569.569,0,0,0-.41-.172.583.583,0,0,0-.582.588v.455h1.16Zm0,0" transform="translate(-57.6 -45.031)" fill="#2598cb"/>
    <path id="Path_2144" data-name="Path 2144" d="M134.837,119.244a1.406,1.406,0,0,0,1-.414,1.427,1.427,0,0,0,.395-.76h-2.791A1.4,1.4,0,0,0,134.837,119.244Zm0,0" transform="translate(-128.105 -113.282)" fill="#2598cb"/>
    <path id="Path_2145" data-name="Path 2145" d="M4.9,8.368a.225.225,0,0,1,.153-.06h7.4a1.015,1.015,0,0,0,1.015-1V1.074a1.016,1.016,0,0,0-1.015-1H1a1,1,0,0,0-1,1V7.3a1,1,0,0,0,1,1h.745A.25.25,0,0,1,2,8.546v2.413ZM9.4,2.534a1.08,1.08,0,0,1,1.839-.755,1.066,1.066,0,0,1,.32.755v.69a.248.248,0,0,1-.244.246H9.657a.263.263,0,0,1-.26-.246ZM5.076,4.309H8.387a.238.238,0,0,1,.24.238,1.9,1.9,0,0,1-3.791,0,.238.238,0,0,1,.24-.238ZM1.919,3.223v-.69A1.065,1.065,0,0,1,2.983,1.466h.07l.032,0,.032,0,.02,0,.039.007.012,0,.05.011h0l.04.011.01,0q.048.015.094.034h0l.042.019,0,0,.041.021.005,0,.038.022.007,0,.031.02.013.008.027.019.016.011L3.64,1.7l.015.012.024.021.016.014.021.02.018.017h0a1.055,1.055,0,0,1,.309.755v.69a.239.239,0,0,1-.232.246H2.15a.238.238,0,0,1-.231-.246Zm0,0" fill="#2598cb"/>
    <path id="Path_2146" data-name="Path 2146" d="M179.633,67.95a1.536,1.536,0,0,0,1.529-1.312h2.007a2.906,2.906,0,0,0,2.911-2.9v-3a1.882,1.882,0,0,0,.406-1.138,1.833,1.833,0,0,0-1.565-1.811v3.622a1.772,1.772,0,0,0,.68-.25v2.574a2.425,2.425,0,0,1-2.431,2.422h-2.007a1.548,1.548,0,1,0-1.528,1.792Zm0,0" transform="translate(-170.965 -55.411)" fill="#2598cb"/>
  </g>
</svg>
