<svg xmlns="http://www.w3.org/2000/svg" width="13.242" height="13.242" viewBox="0 0 13.242 13.242">
  <g id="settings_2_" data-name="settings (2)" transform="translate(0.125 0.125)">
    <g id="Group_4835" data-name="Group 4835">
      <g id="Group_4834" data-name="Group 4834">
        <path id="Path_1740" data-name="Path 1740" d="M12.231,0H.761A.761.761,0,0,0,0,.761V9.693a.761.761,0,0,0,.761.761H5.227V10.5a1.468,1.468,0,0,1-.365.973,2.376,2.376,0,0,0-1.086.221A1.1,1.1,0,0,0,3.2,12.738a.254.254,0,0,0,.254.254h6.09a.254.254,0,0,0,.254-.254,1.1,1.1,0,0,0-.579-1.046,2.374,2.374,0,0,0-1.086-.221,1.468,1.468,0,0,1-.365-.973v-.044h4.466a.761.761,0,0,0,.761-.761V.761A.761.761,0,0,0,12.231,0ZM8.019,11.977c.843,0,1.15.2,1.238.508H3.736a.533.533,0,0,1,.281-.346,2.1,2.1,0,0,1,.956-.162Zm-.508-.508H5.481a1.975,1.975,0,0,0,.253-.971v-.044H7.257V10.5A1.974,1.974,0,0,0,7.511,11.47Zm4.974-1.776a.254.254,0,0,1-.254.254H.761a.254.254,0,0,1-.254-.254V8.628H12.485Zm0-1.573H.508V.761A.254.254,0,0,1,.761.508h11.47a.254.254,0,0,1,.254.254Z" fill="#25afcb" stroke="#25afcb" stroke-width="0.25"/>
      </g>
    </g>
  </g>
</svg>
