<svg xmlns="http://www.w3.org/2000/svg" width="17.946" height="17.946" viewBox="0 0 17.946 17.946">
  <g id="drag_indicator-24px" transform="translate(17.946) rotate(90)">
    <path id="Path_2211" data-name="Path 2211" d="M0,0H17.946V17.946H0Z" fill="none"/>
    <path id="Path_2212" data-name="Path 2212" d="M9.991,14.468a1.5,1.5,0,1,1-1.5-1.5A1.5,1.5,0,0,1,9.991,14.468ZM8.5,8.486a1.5,1.5,0,1,0,1.5,1.5A1.5,1.5,0,0,0,8.5,8.486ZM8.5,4a1.5,1.5,0,1,0,1.5,1.5A1.5,1.5,0,0,0,8.5,4Zm4.486,2.991a1.5,1.5,0,1,0-1.5-1.5A1.5,1.5,0,0,0,12.982,6.991Zm0,1.5a1.5,1.5,0,1,0,1.5,1.5A1.5,1.5,0,0,0,12.982,8.486Zm0,4.486a1.5,1.5,0,1,0,1.5,1.5A1.5,1.5,0,0,0,12.982,12.973Z" transform="translate(-1.766 -1.009)" fill="#e5e5e5"/>
    <path id="Path_2216" data-name="Path 2216" d="M9.991,14.468a1.5,1.5,0,1,1-1.5-1.5A1.5,1.5,0,0,1,9.991,14.468ZM8.5,8.486a1.5,1.5,0,1,0,1.5,1.5A1.5,1.5,0,0,0,8.5,8.486ZM8.5,4a1.5,1.5,0,1,0,1.5,1.5A1.5,1.5,0,0,0,8.5,4Z" transform="translate(7.207 -1.009)" fill="#e5e5e5"/>
  </g>
</svg>
