<svg xmlns="http://www.w3.org/2000/svg" width="14.523" height="12.888" viewBox="0 0 14.523 12.888">
  <g id="Group_6273" data-name="Group 6273" transform="translate(-1823 -273)">
    <path id="cog-outline" d="M4.99,3.677A1.118,1.118,0,1,1,3.872,4.795,1.118,1.118,0,0,1,4.99,3.677m0,.559a.559.559,0,1,0,.559.559.559.559,0,0,0-.559-.559M4.431,7.59a.141.141,0,0,1-.14-.117l-.1-.741a1.941,1.941,0,0,1-.472-.277l-.7.282a.14.14,0,0,1-.17-.061L2.29,5.709a.138.138,0,0,1,.034-.179l.59-.464-.02-.271.02-.279-.59-.456a.138.138,0,0,1-.034-.179l.559-.967a.137.137,0,0,1,.17-.061l.7.279a2.026,2.026,0,0,1,.472-.274l.1-.741A.141.141,0,0,1,4.431,2H5.549a.141.141,0,0,1,.14.117l.1.741a2.026,2.026,0,0,1,.472.274l.7-.279a.137.137,0,0,1,.17.061l.559.967a.138.138,0,0,1-.034.179l-.59.456.02.279-.02.279.59.456a.138.138,0,0,1,.034.179l-.559.967a.137.137,0,0,1-.17.061l-.7-.279a2.026,2.026,0,0,1-.472.274l-.1.741a.141.141,0,0,1-.14.117H4.431M4.78,2.559l-.1.729a1.535,1.535,0,0,0-.847.5L3.156,3.5l-.21.363.59.433a1.551,1.551,0,0,0,0,1.006l-.592.436.21.363.679-.291a1.521,1.521,0,0,0,.841.492l.1.732H5.2l.1-.729a1.542,1.542,0,0,0,.841-.495l.679.291.21-.363L6.443,5.3a1.559,1.559,0,0,0,0-1.009l.59-.433L6.823,3.5l-.674.291A1.515,1.515,0,0,0,5.3,3.291l-.1-.732Z" transform="translate(1829.814 278.299)" fill="#1A50A3"/>
    <path id="email-remove-outline" d="M9.893,13.964H3.423V6.847l5.694,3.559,5.694-3.559v3.623a4.259,4.259,0,0,1,1.423.512V5.423A1.428,1.428,0,0,0,14.811,4H3.423A1.428,1.428,0,0,0,2,5.423v8.54a1.428,1.428,0,0,0,1.423,1.423H9.893a3.986,3.986,0,0,1,0-1.423m4.918-8.54L9.117,8.982,3.423,5.423H14.811" transform="translate(1821 269)" fill="#1A50A3"/>
  </g>
</svg>
