<svg id="backup_table-24px" xmlns="http://www.w3.org/2000/svg" width="17" height="17" viewBox="0 0 17 17">
  <g id="Group_5871" data-name="Group 5871">
    <rect id="Rectangle_3740" data-name="Rectangle 3740" width="17" height="17" fill="none"/>
  </g>
  <g id="Group_5873" data-name="Group 5873" transform="translate(1.41 1.41)">
    <g id="Group_5872" data-name="Group 5872">
      <path id="Path_2213" data-name="Path 2213" d="M15.869,6v9.869H6v1.41h9.869a1.414,1.414,0,0,0,1.41-1.41V6Z" transform="translate(-3.18 -3.18)" fill="#1A50A3"/>
      <path id="Path_2214" data-name="Path 2214" d="M11.869,2H3.41A1.414,1.414,0,0,0,2,3.41v8.459a1.414,1.414,0,0,0,1.41,1.41h8.459a1.414,1.414,0,0,0,1.41-1.41V3.41A1.414,1.414,0,0,0,11.869,2ZM6.934,11.869H3.41V8.344H6.934Zm4.934,0H8.344V8.344h3.524Zm0-4.934H3.41V3.41h8.459Z" transform="translate(-2 -2)" fill="#1A50A3"/>
    </g>
  </g>
</svg>
