<svg xmlns="http://www.w3.org/2000/svg" width="14.5" height="14.5" viewBox="0 0 14.5 14.5">
  <path id="Icon_awesome-route" data-name="Icon awesome-route" d="M11.781,9.063H9.063a.906.906,0,0,1,0-1.812h2.719S14.5,4.22,14.5,2.719a2.719,2.719,0,0,0-5.437,0,5.974,5.974,0,0,0,1.283,2.719H9.063a2.719,2.719,0,0,0,0,5.438h2.719a.906.906,0,0,1,0,1.813H5.253A19.552,19.552,0,0,1,3.914,14.5h7.867a2.719,2.719,0,0,0,0-5.437Zm0-7.25a.906.906,0,1,1-.906.906A.905.905,0,0,1,11.781,1.813ZM2.719,7.25A2.719,2.719,0,0,0,0,9.969C0,11.47,2.719,14.5,2.719,14.5s2.719-3.03,2.719-4.531A2.719,2.719,0,0,0,2.719,7.25Zm0,3.625a.906.906,0,1,1,.906-.906A.905.905,0,0,1,2.719,10.875Z" fill="#939393"/>
</svg>
