<svg xmlns="http://www.w3.org/2000/svg" width="20" height="15" viewBox="0 0 20 15">
  <g id="Group_6173" data-name="Group 6173" transform="translate(-25 -228)">
    <path id="account-multiple-outline" d="M13.07,10.41a5,5,0,0,0,0-5.82A3.39,3.39,0,0,1,15,4a3.5,3.5,0,0,1,0,7,3.39,3.39,0,0,1-1.93-.59M5.5,7.5A3.5,3.5,0,1,1,9,11,3.5,3.5,0,0,1,5.5,7.5m2,0A1.5,1.5,0,1,0,9,6,1.5,1.5,0,0,0,7.5,7.5M16,17v2H2V17s0-4,7-4,7,4,7,4m-2,0c-.14-.78-1.33-2-5-2s-4.93,1.31-5,2m11.95-4A5.32,5.32,0,0,1,18,17v2h4V17s0-3.63-6.06-4Z" transform="translate(23 224)" fill="#1a50a2"/>
  </g>
</svg>
