<svg xmlns="http://www.w3.org/2000/svg" width="9" height="14" viewBox="0 0 9 14">
  <g id="Group_4844" data-name="Group 4844" transform="translate(-37 -289)">
    <g id="Ellipse_388" data-name="Ellipse 388" transform="translate(37 292)" fill="#939393" stroke="#939393" stroke-width="1">
      <circle cx="1.5" cy="1.5" r="1.5" stroke="none"/>
      <circle cx="1.5" cy="1.5" r="1" fill="none"/>
    </g>
    <g id="Ellipse_398" data-name="Ellipse 398" transform="translate(43 294)" fill="#939393" stroke="#939393" stroke-width="1">
      <circle cx="1.5" cy="1.5" r="1.5" stroke="none"/>
      <circle cx="1.5" cy="1.5" r="1" fill="none"/>
    </g>
    <g id="Ellipse_399" data-name="Ellipse 399" transform="translate(43 300)" fill="#939393" stroke="#939393" stroke-width="1">
      <circle cx="1.5" cy="1.5" r="1.5" stroke="none"/>
      <circle cx="1.5" cy="1.5" r="1" fill="none"/>
    </g>
    <g id="Ellipse_397" data-name="Ellipse 397" transform="translate(43 289)" fill="#939393" stroke="#939393" stroke-width="1">
      <circle cx="1.5" cy="1.5" r="1.5" stroke="none"/>
      <circle cx="1.5" cy="1.5" r="1" fill="none"/>
    </g>
    <g id="Ellipse_393" data-name="Ellipse 393" transform="translate(37 297)" fill="#939393" stroke="#939393" stroke-width="1">
      <circle cx="1.5" cy="1.5" r="1.5" stroke="none"/>
      <circle cx="1.5" cy="1.5" r="1" fill="none"/>
    </g>
    <line id="Line_168" data-name="Line 168" y1="3" x2="5" transform="translate(39.5 290.5)" fill="none" stroke="#939393" stroke-width="0.75"/>
    <line id="Line_174" data-name="Line 174" y1="3" x2="5" transform="translate(39.5 295.5)" fill="none" stroke="#939393" stroke-width="0.75"/>
    <line id="Line_175" data-name="Line 175" x2="6" y2="3" transform="translate(38.5 298.5)" fill="none" stroke="#939393" stroke-width="0.75"/>
    <path id="Path_1743" data-name="Path 1743" d="M812.38-20329.357v5" transform="translate(-768 20620)" fill="none" stroke="#939393" stroke-width="0.75"/>
    <path id="Path_1744" data-name="Path 1744" d="M812.38-20329.357v5" transform="translate(-768 20626)" fill="none" stroke="#939393" stroke-width="0.75"/>
    <path id="Path_1745" data-name="Path 1745" d="M812.38-20329.357v5" transform="translate(-774 20622)" fill="none" stroke="#939393" stroke-width="0.75"/>
    <path id="Path_1746" data-name="Path 1746" d="M812.38-20329.357v5" transform="translate(-18501.031 -8072.656) rotate(112)" fill="none" stroke="#939393" stroke-width="0.75"/>
  </g>
</svg>
