<svg id="cast_connected_black_24dp" xmlns="http://www.w3.org/2000/svg" width="12.97" height="12.97" viewBox="0 0 12.97 12.97">
  <path id="Path_2167" data-name="Path 2167" d="M0,0H12.97V12.97H0ZM0,0H12.97V12.97H0Z" fill="none"/>
  <path id="Path_2168" data-name="Path 2168" d="M1,11.106v1.621H2.621A1.619,1.619,0,0,0,1,11.106ZM1,8.944v1.081a2.7,2.7,0,0,1,2.7,2.7H4.783A3.78,3.78,0,0,0,1,8.944ZM1,6.783V7.864a4.864,4.864,0,0,1,4.864,4.864H6.944A5.945,5.945,0,0,0,1,6.783ZM11.808,3H2.081A1.084,1.084,0,0,0,1,4.081V5.7H2.081V4.081h9.727v7.566H8.025v1.081h3.783a1.084,1.084,0,0,0,1.081-1.081V4.081A1.084,1.084,0,0,0,11.808,3ZM3.162,5.162V6.242H9.646V9.485H8.025v1.081h2.7v-5.4Z" transform="translate(-0.46 -1.379)" fill="#939393"/>
</svg>
