<svg xmlns="http://www.w3.org/2000/svg" width="14.906" height="14.906" viewBox="0 0 14.906 14.906">
  <g id="Group_5298" data-name="Group 5298" transform="translate(-11333.99 -5094.991)">
    <path id="Path_1904" data-name="Path 1904" d="M9.445,2a7.453,7.453,0,1,0,7.46,7.453A7.449,7.449,0,0,0,9.445,2Zm.007,13.415a5.962,5.962,0,1,1,5.962-5.962A5.961,5.961,0,0,1,9.453,15.415Z" transform="translate(11331.99 5092.991)" fill="#818181"/>
    <path id="Path_1902" data-name="Path 1902" d="M91.915,121.649l-4.813,4.77-2-1.963a.475.475,0,0,0-.668,0,.464.464,0,0,0,0,.661l2.339,2.292a.484.484,0,0,0,.668,0l5.145-5.1a.465.465,0,0,0,0-.661A.477.477,0,0,0,91.915,121.649Z" transform="translate(11252.984 4978.213)" fill="#818181"/>
  </g>
</svg>
