<svg xmlns="http://www.w3.org/2000/svg" width="14.967" height="14.967" viewBox="0 0 14.967 14.967">
  <path id="agreement" d="M14.383,13.8a1.639,1.639,0,0,1-1.637-1.637V2.806A2.81,2.81,0,0,0,9.939,0H.585a.585.585,0,0,0,0,1.169A1.639,1.639,0,0,1,2.222,2.806v9.355a2.81,2.81,0,0,0,2.806,2.806h9.355a.585.585,0,1,0,0-1.169Zm-9.355,0a1.639,1.639,0,0,1-1.637-1.637V2.806a2.792,2.792,0,0,0-.528-1.637H9.939a1.639,1.639,0,0,1,1.637,1.637v9.355A2.792,2.792,0,0,0,12.1,13.8Zm5.5-9.808a.585.585,0,0,1-.585.585H5.029a.585.585,0,1,1,0-1.169H9.94A.585.585,0,0,1,10.525,3.99Zm0,2.339a.585.585,0,0,1-.585.585H5.029a.585.585,0,1,1,0-1.169H9.94A.585.585,0,0,1,10.525,6.329Zm-.11,2.642a.585.585,0,0,1-.136.816L8.642,10.956a.585.585,0,0,1-.68,0l-1.3-.927-1.3.927A.585.585,0,0,1,4.688,10L6.325,8.835a.585.585,0,0,1,.68,0l1.3.927,1.3-.927A.585.585,0,0,1,10.415,8.971Zm0,0" fill="#939393"/>
</svg>
