<svg xmlns="http://www.w3.org/2000/svg" width="13.557" height="11.62" viewBox="0 0 13.557 11.62">
  <g id="Icon_ionic-md-paper" data-name="Icon ionic-md-paper" transform="translate(-2.25 -4.5)">
    <path id="Path_1422" data-name="Path 1422" d="M15.322,4.5H7.092a.5.5,0,0,0-.484.5v.953H3.521A1.275,1.275,0,0,0,2.25,7.223V13.5a2.623,2.623,0,0,0,2.6,2.618h8.464a2.5,2.5,0,0,0,2.49-2.481V4.984A.486.486,0,0,0,15.322,4.5ZM6.607,6.921v5.81H5.337V7.5a1.478,1.478,0,0,0-.1-.581Zm-.514,7.728a1.787,1.787,0,0,1-1.226.5A1.653,1.653,0,0,1,3.218,13.5v-6a.575.575,0,1,1,1.15,0v5.713a.486.486,0,0,0,.484.484h1.74A1.592,1.592,0,0,1,6.093,14.649Zm8.745-1.011a1.529,1.529,0,0,1-1.522,1.513H6.949A2.53,2.53,0,0,0,7.576,13.5v-8h7.262Z" fill="#939393"/>
    <path id="Path_1423" data-name="Path 1423" d="M17.438,9.563h4.842v1.695H17.438Z" transform="translate(-8.651 -2.884)" fill="#939393"/>
    <path id="Path_1424" data-name="Path 1424" d="M17.438,15.75h4.842v.968H17.438Z" transform="translate(-8.651 -6.408)" fill="#939393"/>
    <path id="Path_1425" data-name="Path 1425" d="M17.438,20.25h4.842v.968H17.438Z" transform="translate(-8.651 -8.972)" fill="#939393"/>
    <path id="Path_1426" data-name="Path 1426" d="M21.959,24.75H17.117s0,.968-.242.968h4.5C21.959,25.718,21.959,25.083,21.959,24.75Z" transform="translate(-8.331 -11.535)" fill="#939393"/>
  </g>
</svg>
