<svg id="alt_route-24px" xmlns="http://www.w3.org/2000/svg" width="18" height="18" viewBox="0 0 18 18">
  <rect id="Rectangle_3233" data-name="Rectangle 3233" width="18" height="18" fill="none"/>
  <path id="Path_1910" data-name="Path 1910" d="M8.1,8.891,7.032,9.959A5.478,5.478,0,0,1,5.686,7.748l1.459-.369A4.022,4.022,0,0,0,8.1,8.891Zm.918-3.882L6.009,2,3,5.009H5.272a11.27,11.27,0,0,0,.143,1.633l1.459-.369a9.942,9.942,0,0,1-.1-1.264Zm7.523,0L13.532,2,10.523,5.009h2.249c-.075,2.769-.963,3.573-1.911,4.424A6.524,6.524,0,0,0,9.771,10.6a5.366,5.366,0,0,0-.85-.933L7.86,10.727a2.914,2.914,0,0,1,1.159,2.558h0v3.762h1.5V13.285h0a3.05,3.05,0,0,1,1.347-2.731c1.038-.933,2.317-2.091,2.407-5.545Z" transform="translate(-0.743 -0.495)" fill="#939393"/>
</svg>
