<svg id="Group_5019" data-name="Group 5019" xmlns="http://www.w3.org/2000/svg" width="15.589" height="15.589" viewBox="0 0 15.589 15.589">
  <path id="Path_369" data-name="Path 369" d="M345.562,197.061a7.794,7.794,0,1,0-7.794,7.794A7.794,7.794,0,0,0,345.562,197.061Z" transform="translate(-329.973 -189.267)" fill="#00b456"/>
  <g id="Group_1027" data-name="Group 1027" transform="translate(2.993 2.612)">
    <path id="Path_370" data-name="Path 370" d="M368.021,218.657a4.7,4.7,0,0,0-9.39-.088c0,.068-.005.137-.005.206a4.626,4.626,0,0,0,.641,2.352.068.068,0,0,1,.006.056l-.832,2.459a.043.043,0,0,0,.054.055l2.561-.814a.067.067,0,0,1,.052,0,4.739,4.739,0,0,0,2.218.552,4.687,4.687,0,0,0,4.7-4.664C368.023,218.741,368.021,218.657,368.021,218.657Zm-7.869,2.219a3.73,3.73,0,0,1-.643-2.1c0-.121.006-.241.018-.367a3.817,3.817,0,0,1,7.6.071c.009.115.013.209.013.3a3.819,3.819,0,0,1-5.428,3.431c-.14-.065-.406-.224-.49-.275a.067.067,0,0,0-.056-.006l-1.289.41a.038.038,0,0,1-.047-.048l.416-1.227a.069.069,0,0,0-.009-.062C360.212,220.961,360.17,220.9,360.152,220.876Z" transform="translate(-358.437 -214.112)" fill="#fff"/>
  </g>
  <path id="Path_371" data-name="Path 371" d="M385.309,240.189a1.013,1.013,0,0,0-.232-.144c-.08-.04-.668-.328-.779-.368-.095-.034-.2-.073-.3.071-.073.108-.287.358-.357.436-.049.056-.094.074-.2.02a3.919,3.919,0,0,1-.9-.553,3.336,3.336,0,0,1-.624-.771c-.05-.084-.017-.123.044-.184.038-.037.2-.238.217-.257.026-.04.074-.137.074-.137a.245.245,0,0,0-.009-.231c-.019-.037-.321-.764-.35-.832-.086-.205-.178-.216-.266-.211-.043,0-.442.006-.569.144l-.022.024a1.268,1.268,0,0,0-.385.939,1.439,1.439,0,0,0,.06.394,2.563,2.563,0,0,0,.411.793c0,.006.3.411.442.579a4,4,0,0,0,1.511,1.131,3.57,3.57,0,0,0,1.123.323,2.421,2.421,0,0,0,.254-.039,1.184,1.184,0,0,0,.8-.559A.93.93,0,0,0,385.309,240.189Z" transform="translate(-375.195 -231.883)" fill="#fff"/>
</svg>
