<svg xmlns="http://www.w3.org/2000/svg" width="16.229" height="13.987" viewBox="0 0 16.229 13.987">
  <g id="Group_5194" data-name="Group 5194" transform="translate(-50.588 -71.247)">
    <g id="Group_5180" data-name="Group 5180" transform="translate(58.302 72.938)">
      <rect id="Rectangle_3513" data-name="Rectangle 3513" width="0.873" height="2.869" fill="#939393"/>
    </g>
    <g id="Group_5185" data-name="Group 5185" transform="translate(54.786 75.933)">
      <g id="Group_5182" data-name="Group 5182" transform="translate(1.433)">
        <g id="Group_5181" data-name="Group 5181">
          <path id="Path_2136" data-name="Path 2136" d="M56.188,78.552a2.244,2.244,0,1,1,1.59-.658A2.184,2.184,0,0,1,56.188,78.552Z" transform="translate(-53.722 -73.837)" fill="#939393"/>
          <path id="Path_2137" data-name="Path 2137" d="M56.279,74.367a2.03,2.03,0,1,1-1.435.6,1.963,1.963,0,0,1,1.435-.6m0-.436a2.468,2.468,0,1,0,1.744.723,2.386,2.386,0,0,0-1.744-.723Z" transform="translate(-53.814 -73.931)" fill="#939393"/>
        </g>
      </g>
      <g id="Group_5184" data-name="Group 5184" transform="translate(0 4.071)">
        <g id="Group_5183" data-name="Group 5183">
          <path id="Path_2138" data-name="Path 2138" d="M54.824,81.181a1.7,1.7,0,0,1-1.22-.45,1.6,1.6,0,0,1-.485-1.217c0-.175.005-.347.017-.513a5.51,5.51,0,0,1,.072-.559,4.34,4.34,0,0,1,.138-.562,2.771,2.771,0,0,1,.239-.539,2,2,0,0,1,.368-.482,1.648,1.648,0,0,1,.548-.346,1.858,1.858,0,0,1,.69-.124.811.811,0,0,1,.449.175l.342.22a1.736,1.736,0,0,0,.391.171,1.536,1.536,0,0,0,.48.079,1.488,1.488,0,0,0,.475-.079,1.736,1.736,0,0,0,.4-.171l.34-.222a.825.825,0,0,1,.449-.173,1.891,1.891,0,0,1,.69.124,1.632,1.632,0,0,1,.546.346,2.081,2.081,0,0,1,.37.482,2.88,2.88,0,0,1,.239.539,4.644,4.644,0,0,1,.138.562c.035.2.058.388.072.559s.017.337.017.513a1.6,1.6,0,0,1-.485,1.217,1.707,1.707,0,0,1-1.22.45Z" transform="translate(-52.9 -76.169)" fill="#939393"/>
          <path id="Path_2139" data-name="Path 2139" d="M55.283,76.7a.617.617,0,0,1,.33.14c.1.066.215.141.344.222a1.948,1.948,0,0,0,.443.2,1.737,1.737,0,0,0,1.088,0,1.966,1.966,0,0,0,.445-.2c.129-.082.244-.157.344-.222a.612.612,0,0,1,.33-.14,1.635,1.635,0,0,1,.608.11,1.441,1.441,0,0,1,.477.3,1.912,1.912,0,0,1,.333.433,2.748,2.748,0,0,1,.22.5,4.35,4.35,0,0,1,.131.534c.033.19.056.368.068.532s.017.328.017.5a1.4,1.4,0,0,1-.417,1.058,1.5,1.5,0,0,1-1.07.391H54.917a1.5,1.5,0,0,1-1.072-.391,1.4,1.4,0,0,1-.415-1.058c0-.169.005-.337.017-.5a4.587,4.587,0,0,1,.068-.532,4.054,4.054,0,0,1,.131-.534,2.633,2.633,0,0,1,.22-.5,1.858,1.858,0,0,1,.332-.433,1.459,1.459,0,0,1,.477-.3,1.644,1.644,0,0,1,.609-.11m0-.436a2.067,2.067,0,0,0-.77.141,1.918,1.918,0,0,0-.618.389,2.328,2.328,0,0,0-.409.532,3.056,3.056,0,0,0-.257.581,4.379,4.379,0,0,0-.145.592,5.509,5.509,0,0,0-.075.58c-.01.171-.017.349-.017.529a1.841,1.841,0,0,0,.552,1.374,1.918,1.918,0,0,0,1.372.512h4.057a1.921,1.921,0,0,0,1.372-.512,1.845,1.845,0,0,0,.552-1.374c0-.182-.007-.36-.019-.529a5.479,5.479,0,0,0-.073-.58,4.975,4.975,0,0,0-.145-.592,3.17,3.17,0,0,0-.257-.581,2.384,2.384,0,0,0-.41-.532,1.892,1.892,0,0,0-.616-.389,2.074,2.074,0,0,0-.77-.141,1.036,1.036,0,0,0-.569.211l-.34.22a1.621,1.621,0,0,1-.344.148,1.341,1.341,0,0,1-.409.066,1.361,1.361,0,0,1-.41-.066,1.666,1.666,0,0,1-.344-.148l-.34-.22a1.007,1.007,0,0,0-.567-.211Z" transform="translate(-52.993 -76.263)" fill="#939393"/>
        </g>
      </g>
    </g>
    <circle id="Ellipse_371" data-name="Ellipse 371" cx="0.994" cy="0.994" r="0.994" transform="translate(57.745 71.247)" fill="#939393"/>
    <g id="Group_5187" data-name="Group 5187" transform="translate(62.257 79.59)">
      <g id="Group_5186" data-name="Group 5186" transform="translate(0 0.558)">
        <rect id="Rectangle_3514" data-name="Rectangle 3514" width="2.869" height="0.873" fill="#939393"/>
      </g>
      <circle id="Ellipse_372" data-name="Ellipse 372" cx="0.994" cy="0.994" r="0.994" transform="translate(2.572)" fill="#939393"/>
    </g>
    <g id="Group_5189" data-name="Group 5189" transform="translate(50.588 79.59)">
      <g id="Group_5188" data-name="Group 5188" transform="translate(1.691 0.558)">
        <rect id="Rectangle_3515" data-name="Rectangle 3515" width="2.869" height="0.873" fill="#939393"/>
      </g>
      <circle id="Ellipse_373" data-name="Ellipse 373" cx="0.994" cy="0.994" r="0.994" fill="#939393"/>
    </g>
    <g id="Group_5191" data-name="Group 5191" transform="translate(60.749 72.504)">
      <g id="Group_5190" data-name="Group 5190" transform="translate(0 1.77)">
        <rect id="Rectangle_3516" data-name="Rectangle 3516" width="3.391" height="0.873" transform="translate(0 2.398) rotate(-45)" fill="#939393"/>
      </g>
      <circle id="Ellipse_374" data-name="Ellipse 374" cx="1.417" cy="1.417" r="1.417" transform="translate(1.951)" fill="#939393"/>
    </g>
    <g id="Group_5193" data-name="Group 5193" transform="translate(51.87 72.504)">
      <g id="Group_5192" data-name="Group 5192" transform="translate(1.77 1.77)">
        <rect id="Rectangle_3517" data-name="Rectangle 3517" width="0.873" height="3.391" transform="translate(0 0.617) rotate(-45)" fill="#939393"/>
      </g>
      <circle id="Ellipse_375" data-name="Ellipse 375" cx="1.417" cy="1.417" r="1.417" fill="#939393"/>
    </g>
  </g>
</svg>
