<svg id="format_list_bulleted_black_24dp" xmlns="http://www.w3.org/2000/svg" width="20.408" height="20.408" viewBox="0 0 20.408 20.408">
  <path id="Path_2169" data-name="Path 2169" d="M0,0H20.408V20.408H0Z" fill="none"/>
  <path id="Path_2170" data-name="Path 2170" d="M3.776,9.6a1.276,1.276,0,1,0,1.276,1.276A1.274,1.274,0,0,0,3.776,9.6Zm0-5.1A1.276,1.276,0,1,0,5.051,5.776,1.274,1.274,0,0,0,3.776,4.5Zm0,10.2A1.276,1.276,0,1,0,5.051,15.98,1.279,1.279,0,0,0,3.776,14.7ZM6.327,16.83h11.9v-1.7H6.327Zm0-5.1h11.9v-1.7H6.327Zm0-6.8v1.7h11.9v-1.7Z" transform="translate(-0.374 -0.673)" fill="#1A50A3"/>
</svg>
