<svg xmlns="http://www.w3.org/2000/svg" width="15.451" height="15.589" viewBox="0 0 15.451 15.589">
  <g id="Group_5028" data-name="Group 5028" transform="translate(-243.779 -103.419)">
    <path id="Path_1745" data-name="Path 1745" d="M251.505,119.008c-9.11-2.718-7.638-12.391-7.638-12.391,3.557-.12,3.158-3.2,3.158-3.2h8.96s-.4,3.078,3.158,3.2C259.143,106.617,260.616,116.29,251.505,119.008Z" transform="translate(0 0)" fill="#0669b3"/>
    <circle id="Ellipse_274" data-name="Ellipse 274" cx="4.479" cy="4.479" r="4.479" transform="translate(247.026 106.734)" fill="#f3f6f8"/>
    <path id="Path_1746" data-name="Path 1746" d="M268.865,133.483l1.2,1.2a.225.225,0,0,0,.337,0c.178-.175,2.312-2.312,2.312-2.312a.4.4,0,0,1,.571,0c.326.269.194.44.07.595s-2.74,2.74-2.74,2.74a.544.544,0,0,1-.732,0,21.536,21.536,0,0,1-1.627-1.627.5.5,0,0,1,.1-.609A.386.386,0,0,1,268.865,133.483Z" transform="translate(-19.337 -22.834)" fill="#0669b3"/>
  </g>
</svg>
