<svg xmlns="http://www.w3.org/2000/svg" width="22.05" height="10.353" viewBox="0 0 22.05 10.353">
  <g id="rasa-logo" transform="translate(-5.5 -5)">
    <path id="Path_2140" data-name="Path 2140" d="M43.8,29v3.96h.948V31.766h2.055v1.185h.948V29Zm3,1.818H44.753v-.869h2.055Zm-3.873.356v1.778H39.063V32h2.924V31.45H39.063V29h3.873v.948H40.011V30.5h2.924ZM34.242,29v3.96h.948V31.766h2.055v1.185h.948V29Zm3,1.818H35.19v-.869h2.055Zm-5.144.628L33.315,31l.058-.023V29H29.5v3.952h.936v-.9l.711-.258,1.071,1.159h1.171Zm-1.66-.4V29.948h1.983v.37Z" transform="translate(-22.103 -22.103)" fill="#5a17ee"/>
    <path id="Path_2141" data-name="Path 2141" d="M24.6,11.76h1.89v-5.7H6.562v5.7H20.788L24.6,13.643V11.76ZM5.5,5H27.55v7.824H25.66v2.529l-5.119-2.529H5.5Z" transform="translate(0)" fill="#5a17ee"/>
  </g>
</svg>
