<svg xmlns="http://www.w3.org/2000/svg" width="13.077" height="13.077" viewBox="0 0 13.077 13.077">
  <g id="Solid" transform="translate(-24 -23.999)">
    <path id="Path_1825" data-name="Path 1825" d="M142.645,27.7l1.4-1.4v7.386a.676.676,0,0,0,1.353,0V26.309l1.4,1.4a.676.676,0,1,0,.957-.957L145.2,24.2a.676.676,0,0,0-.957,0l-2.551,2.551a.676.676,0,0,0,.957.957Z" transform="translate(-114.179)" fill="#a5a5a5"/>
    <path id="Path_1826" data-name="Path 1826" d="M36.4,232a.676.676,0,0,0-.676.676v5.186H25.353v-5.186a.676.676,0,0,0-1.353,0v5.411a1.127,1.127,0,0,0,1.127,1.127H35.95a1.127,1.127,0,0,0,1.127-1.127v-5.411A.676.676,0,0,0,36.4,232Z" transform="translate(0 -202.139)" fill="#a5a5a5"/>
  </g>
</svg>
