<svg xmlns="http://www.w3.org/2000/svg" width="16.158" height="16.158" viewBox="0 0 16.158 16.158">
  <g id="Group_5023" data-name="Group 5023" transform="translate(-1372 -2187)">
    <g id="Group_5022" data-name="Group 5022" transform="translate(1372 2187)">
      <path id="Path_374" data-name="Path 374" d="M129.75,197.345a8.079,8.079,0,1,0-8.079,8.079A8.078,8.078,0,0,0,129.75,197.345Z" transform="translate(-113.592 -189.267)" fill="#8e24aa"/>
    </g>
    <g id="viber" transform="translate(1373.62 2190.013)">
      <path id="Path_1737" data-name="Path 1737" d="M10.723,5.953C11.03,3.367,10.575,1.735,9.755,1h0c-1.324-1.261-5.8-1.448-7.38.057a4.5,4.5,0,0,0-.989,3.153c-.027,1.337-.06,3.843,2.274,4.522h0l0,1.038s-.016.42.253.505c.307.1.446-.1,1.4-1.237a8.744,8.744,0,0,0,2.964-.225,2.968,2.968,0,0,0,2.444-2.855ZM5.472,8.3S4.461,9.564,4.147,9.892c-.1.106-.216.1-.214-.115,0-.139.008-1.723.008-1.723C1.961,7.487,2.078,5.354,2.1,4.238a3.75,3.75,0,0,1,.828-2.646c1.39-1.3,5.31-1.012,6.309-.073,1.221,1.083.786,4.141.789,4.245a2.355,2.355,0,0,1-2,2.314,8.067,8.067,0,0,1-2.55.226Z" transform="translate(0 0)" fill="#f3f6f8"/>
      <path id="Path_1738" data-name="Path 1738" d="M12.057,4.3a.13.13,0,0,0,0,.26A2.334,2.334,0,0,1,14.406,7.1a.126.126,0,1,0,.251,0h0a2.59,2.59,0,0,0-2.6-2.8Z" transform="translate(-6.025 -2.461)" fill="#f3f6f8"/>
      <path id="Path_1739" data-name="Path 1739" d="M14.036,7.725a.126.126,0,1,0,.251.006,1.738,1.738,0,0,0-1.707-1.86.13.13,0,0,0-.018.26A1.481,1.481,0,0,1,14.036,7.725Z" transform="translate(-6.319 -3.36)" fill="#f3f6f8"/>
      <path id="Path_1740" data-name="Path 1740" d="M10.216,8.33A.4.4,0,0,0,9.7,8.4l-.187.242a.334.334,0,0,1-.272.106A2.49,2.49,0,0,1,7.6,7.057a.361.361,0,0,1,.1-.281l.233-.193a.43.43,0,0,0,.072-.535,5.576,5.576,0,0,0-.639-.923.345.345,0,0,0-.464-.079h0c-.371.217-.777.623-.647,1.042A7.019,7.019,0,0,0,8.183,9a7.417,7.417,0,0,0,1.987,1.136l0,.006c.4.135.8-.287,1.007-.67v0a.368.368,0,0,0-.074-.475,5.058,5.058,0,0,0-.891-.662Z" transform="translate(-2.769 -2.857)" fill="#f3f6f8"/>
      <path id="Path_1741" data-name="Path 1741" d="M13.012,7.758c.412.024.612.239.634.682a.126.126,0,1,0,.251-.012.861.861,0,0,0-.871-.929A.13.13,0,0,0,13.012,7.758Z" transform="translate(-6.574 -4.289)" fill="#f3f6f8"/>
    </g>
  </g>
</svg>
