<svg xmlns="http://www.w3.org/2000/svg" width="12.206" height="11.105" viewBox="0 0 12.206 11.105">
  <g id="warning" transform="translate(0 -20.359)">
    <path id="Path_1751" data-name="Path 1751" d="M12.06,29.735,7.1,20.935a1.154,1.154,0,0,0-2,0l-4.957,8.8a1.161,1.161,0,0,0,1,1.729h9.876A1.173,1.173,0,0,0,12.06,29.735Z" transform="translate(0 0)" fill="#1c99c0"/>
    <path id="Path_1752" data-name="Path 1752" d="M47.37,63.025l4.957,8.8H42.413l4.957-8.8Z" transform="translate(-41.267 -41.513)" fill="#f7f7f7"/>
    <g id="Group_4855" data-name="Group 4855" transform="translate(5.294 24.624)">
      <path id="Path_1753" data-name="Path 1753" d="M195.908,179.148l.307,2.037a.5.5,0,0,0,.5.423h0a.532.532,0,0,0,.5-.423l.307-2.037a.8.8,0,0,0-.807-.922h0A.82.82,0,0,0,195.908,179.148Z" transform="translate(-195.905 -178.226)" fill="#1c99c0"/>
      <circle id="Ellipse_400" data-name="Ellipse 400" cx="0.461" cy="0.461" r="0.461" transform="translate(0.349 3.804)" fill="#1c99c0"/>
    </g>
  </g>
</svg>
