<svg id="Group_1033" data-name="Group 1033" xmlns="http://www.w3.org/2000/svg" width="14.06" height="14.06" viewBox="0 0 14.06 14.06">
  <g id="Group_1032" data-name="Group 1032">
    <path id="Path_376" data-name="Path 376" d="M193.651,376.716v-2.252a5.377,5.377,0,0,0-1.514.289C192.483,375.808,193.031,376.553,193.651,376.716Z" transform="translate(-186.866 -364.21)" fill="#3fabf3"/>
    <path id="Path_377" data-name="Path 377" d="M178.752,303.526a5.851,5.851,0,0,1,1.654-.3v-1.508h-1.891A8.571,8.571,0,0,0,178.752,303.526Z" transform="translate(-173.618 -293.439)" fill="#3fabf3"/>
    <path id="Path_378" data-name="Path 378" d="M178.514,219.787h1.891V218.28a5.852,5.852,0,0,1-1.654-.3A8.569,8.569,0,0,0,178.514,219.787Z" transform="translate(-173.618 -211.997)" fill="#3fabf3"/>
    <path id="Path_379" data-name="Path 379" d="M193.651,131.532V129.28c-.62.162-1.169.908-1.514,1.964A5.372,5.372,0,0,0,193.651,131.532Z" transform="translate(-186.866 -125.735)" fill="#3fabf3"/>
    <path id="Path_380" data-name="Path 380" d="M266.657,374.779a5.377,5.377,0,0,0-1.514-.288v2.252C265.763,376.58,266.312,375.834,266.657,374.779Z" transform="translate(-257.869 -364.236)" fill="#3fabf3"/>
    <path id="Path_381" data-name="Path 381" d="M266.8,217.993a5.848,5.848,0,0,1-1.654.3V219.8h1.891A8.567,8.567,0,0,0,266.8,217.993Z" transform="translate(-257.87 -212.013)" fill="#3fabf3"/>
    <path id="Path_382" data-name="Path 382" d="M267.034,301.714h-1.891v1.508a5.854,5.854,0,0,1,1.654.3A8.563,8.563,0,0,0,267.034,301.714Z" transform="translate(-257.87 -293.438)" fill="#3fabf3"/>
    <path id="Path_383" data-name="Path 383" d="M144.448,135.771a4.553,4.553,0,0,0-1.755,1.045,4.632,4.632,0,0,0,.894.55A4.649,4.649,0,0,1,144.448,135.771Z" transform="translate(-138.779 -132.046)" fill="#3fabf3"/>
    <path id="Path_384" data-name="Path 384" d="M142.693,392.321a4.553,4.553,0,0,0,1.755,1.045,4.649,4.649,0,0,1-.861-1.594A4.622,4.622,0,0,0,142.693,392.321Z" transform="translate(-138.779 -381.039)" fill="#3fabf3"/>
    <path id="Path_385" data-name="Path 385" d="M342.454,189.508h1.891a4.529,4.529,0,0,0-1.057-2.673,5.131,5.131,0,0,1-1.1.674A9.022,9.022,0,0,1,342.454,189.508Z" transform="translate(-332.805 -181.713)" fill="#3fabf3"/>
    <path id="Path_386" data-name="Path 386" d="M94.05,187.527a5.132,5.132,0,0,1-1.1-.674,4.528,4.528,0,0,0-1.057,2.672h1.891A9.022,9.022,0,0,1,94.05,187.527Z" transform="translate(-89.374 -181.731)" fill="#3fabf3"/>
    <path id="Path_387" data-name="Path 387" d="M342.19,303.713a5.133,5.133,0,0,1,1.1.674,4.529,4.529,0,0,0,1.057-2.672h-1.891A9.027,9.027,0,0,1,342.19,303.713Z" transform="translate(-332.806 -293.443)" fill="#3fabf3"/>
    <path id="Path_388" data-name="Path 388" d="M305.874,393.338a4.554,4.554,0,0,0,1.755-1.045,4.634,4.634,0,0,0-.894-.55A4.649,4.649,0,0,1,305.874,393.338Z" transform="translate(-297.483 -381.011)" fill="#3fabf3"/>
    <path id="Path_389" data-name="Path 389" d="M13.307,0H.753A.756.756,0,0,0,0,.759v.759H14.06V.759A.756.756,0,0,0,13.307,0ZM1.255,1.012H1A.253.253,0,0,1,1,.506h.251a.253.253,0,0,1,0,.506ZM2.438.939a.29.29,0,0,1-.083.053.235.235,0,0,1-.191,0A.289.289,0,0,1,2.081.939a.258.258,0,0,1,0-.359A.29.29,0,0,1,2.164.526a.228.228,0,0,1,.191,0,.289.289,0,0,1,.083.053A.258.258,0,0,1,2.438.939ZM3.495.855a.292.292,0,0,1-.053.083.253.253,0,0,1-.357,0A.293.293,0,0,1,3.033.855a.24.24,0,0,1,0-.192A.292.292,0,0,1,3.086.579.25.25,0,0,1,3.36.524a.253.253,0,0,1,.155.235A.214.214,0,0,1,3.495.855Zm9.561.157H4.519a.253.253,0,0,1,0-.506h8.536a.253.253,0,0,1,0,.506Z" fill="#3fabf3"/>
    <path id="Path_390" data-name="Path 390" d="M265.143,129.307v2.252a5.372,5.372,0,0,0,1.514-.289C266.312,130.215,265.763,129.469,265.143,129.307Z" transform="translate(-257.869 -125.761)" fill="#3fabf3"/>
    <path id="Path_391" data-name="Path 391" d="M0,84.427a.753.753,0,0,0,.753.752H13.307a.753.753,0,0,0,.753-.752V73.143H0Zm3.329-8.645h0a.246.246,0,0,1,.022-.037.225.225,0,0,1,.037-.028,5,5,0,0,1,7.281,0,.224.224,0,0,1,.037.028.245.245,0,0,1,.022.037,4.98,4.98,0,0,1,0,6.757.247.247,0,0,1-.022.037.231.231,0,0,1-.035.025,5,5,0,0,1-7.285,0,.23.23,0,0,1-.037-.028.244.244,0,0,1-.022-.037A4.98,4.98,0,0,1,3.329,75.782Z" transform="translate(0 -71.119)" fill="#3fabf3"/>
    <path id="Path_392" data-name="Path 392" d="M94.051,303.713a9.021,9.021,0,0,1-.265-2H91.895a4.529,4.529,0,0,0,1.057,2.673A5.129,5.129,0,0,1,94.051,303.713Z" transform="translate(-89.375 -293.443)" fill="#3fabf3"/>
    <path id="Path_393" data-name="Path 393" d="M307.629,136.816a4.554,4.554,0,0,0-1.755-1.045,4.649,4.649,0,0,1,.861,1.594A4.632,4.632,0,0,0,307.629,136.816Z" transform="translate(-297.484 -132.046)" fill="#3fabf3"/>
  </g>
</svg>
